<svg width="44" height="46" viewBox="0 0 44 46" fill="none" xmlns="http://www.w3.org/2000/svg">
<path fill-rule="evenodd" clip-rule="evenodd" d="M22 38.3333C22 38.3333 34.8333 29.447 34.8333 19.0795C34.8333 15.5443 33.4812 12.1539 31.0745 9.65413C28.6678 7.15436 25.4036 5.75 22 5.75C18.5964 5.75 15.3322 7.15436 12.9255 9.65413C10.5187 12.1539 9.16666 15.5443 9.16666 19.0795C9.16666 29.447 22 38.3333 22 38.3333ZM22 23.5227C24.3625 23.5227 26.2778 21.5334 26.2778 19.0795C26.2778 16.6256 24.3625 14.6364 22 14.6364C19.6374 14.6364 17.7222 16.6256 17.7222 19.0795C17.7222 21.5334 19.6374 23.5227 22 23.5227Z" fill="white"/>
</svg>
