<svg width="45" height="45" viewBox="0 0 45 45" fill="none" xmlns="http://www.w3.org/2000/svg">
<circle cx="22.5" cy="22.5" r="21.5" stroke="#FF602E" stroke-width="2"/>
<path d="M10.8809 15.6816V14.3281C10.8809 13.3555 11.0918 12.4707 11.5137 11.6738C11.9355 10.877 12.5566 10.2383 13.377 9.75781C14.1973 9.27734 15.2051 9.03711 16.4004 9.03711C17.6309 9.03711 18.6562 9.27734 19.4766 9.75781C20.3086 10.2383 20.9297 10.877 21.3398 11.6738C21.7617 12.4707 21.9727 13.3555 21.9727 14.3281V15.6816C21.9727 16.6309 21.7617 17.5039 21.3398 18.3008C20.9297 19.0977 20.3145 19.7363 19.4941 20.2168C18.6738 20.6973 17.6602 20.9375 16.4531 20.9375C15.2344 20.9375 14.209 20.6973 13.377 20.2168C12.5566 19.7363 11.9355 19.0977 11.5137 18.3008C11.0918 17.5039 10.8809 16.6309 10.8809 15.6816ZM14.2383 14.3281V15.6816C14.2383 16.0918 14.3145 16.4844 14.4668 16.8594C14.6309 17.2227 14.877 17.5215 15.2051 17.7559C15.5449 17.9785 15.9551 18.0898 16.4355 18.0898C16.9395 18.0898 17.3496 17.9785 17.666 17.7559C17.9824 17.5215 18.2168 17.2227 18.3691 16.8594C18.5215 16.4844 18.5977 16.0918 18.5977 15.6816V14.3281C18.5977 13.8945 18.5156 13.4961 18.3516 13.1328C18.1992 12.7578 17.959 12.459 17.6309 12.2363C17.3145 12.002 16.9043 11.8848 16.4004 11.8848C15.9316 11.8848 15.5332 12.002 15.2051 12.2363C14.877 12.459 14.6309 12.7578 14.4668 13.1328C14.3145 13.4961 14.2383 13.8945 14.2383 14.3281ZM23.1152 30.0781V28.7246C23.1152 27.7637 23.3262 26.8848 23.748 26.0879C24.1816 25.291 24.8086 24.6523 25.6289 24.1719C26.4609 23.6914 27.4805 23.4512 28.6875 23.4512C29.9062 23.4512 30.9258 23.6914 31.7461 24.1719C32.5664 24.6523 33.1875 25.291 33.6094 26.0879C34.0312 26.8848 34.2422 27.7637 34.2422 28.7246V30.0781C34.2422 31.0391 34.0312 31.918 33.6094 32.7148C33.1992 33.5117 32.584 34.1504 31.7637 34.6309C30.9434 35.1113 29.9297 35.3516 28.7227 35.3516C27.5039 35.3516 26.4785 35.1113 25.6465 34.6309C24.8145 34.1504 24.1816 33.5117 23.748 32.7148C23.3262 31.918 23.1152 31.0391 23.1152 30.0781ZM26.4902 28.7246V30.0781C26.4902 30.5 26.584 30.8984 26.7715 31.2734C26.959 31.6484 27.2168 31.9473 27.5449 32.1699C27.8848 32.3926 28.2773 32.5039 28.7227 32.5039C29.2852 32.5039 29.7246 32.3926 30.041 32.1699C30.3574 31.9473 30.5742 31.6484 30.6914 31.2734C30.8203 30.8984 30.8848 30.5 30.8848 30.0781V28.7246C30.8848 28.3027 30.8027 27.9102 30.6387 27.5469C30.4746 27.1719 30.2285 26.873 29.9004 26.6504C29.584 26.416 29.1797 26.2988 28.6875 26.2988C28.1953 26.2988 27.7852 26.416 27.457 26.6504C27.1406 26.873 26.9004 27.1719 26.7363 27.5469C26.5723 27.9102 26.4902 28.3027 26.4902 28.7246ZM29.9355 13.0625L17.4375 33.0664L14.9766 31.7656L27.4746 11.7617L29.9355 13.0625Z" fill="#FF602E"/>
</svg>
