<svg width="24" height="27" viewBox="0 0 24 27" fill="none" xmlns="http://www.w3.org/2000/svg">
<path d="M0.162109 6.68164V5.32812C0.162109 4.35547 0.373047 3.4707 0.794922 2.67383C1.2168 1.87695 1.82031 1.23828 2.60547 0.757812C3.39062 0.277344 4.32227 0.0371094 5.40039 0.0371094C6.50195 0.0371094 7.43945 0.277344 8.21289 0.757812C8.99805 1.23828 9.60156 1.87695 10.0234 2.67383C10.4453 3.4707 10.6562 4.35547 10.6562 5.32812V6.68164C10.6562 7.63086 10.4453 8.50391 10.0234 9.30078C9.61328 10.0977 9.01562 10.7363 8.23047 11.2168C7.45703 11.6973 6.52539 11.9375 5.43555 11.9375C4.3457 11.9375 3.40234 11.6973 2.60547 11.2168C1.82031 10.7363 1.2168 10.0977 0.794922 9.30078C0.373047 8.50391 0.162109 7.63086 0.162109 6.68164ZM2.60547 5.32812V6.68164C2.60547 7.2207 2.70508 7.73047 2.9043 8.21094C3.11523 8.69141 3.43164 9.08398 3.85352 9.38867C4.27539 9.68164 4.80273 9.82812 5.43555 9.82812C6.06836 9.82812 6.58984 9.68164 7 9.38867C7.41016 9.08398 7.71484 8.69141 7.91406 8.21094C8.11328 7.73047 8.21289 7.2207 8.21289 6.68164V5.32812C8.21289 4.77734 8.10742 4.26172 7.89648 3.78125C7.69727 3.28906 7.38672 2.89648 6.96484 2.60352C6.55469 2.29883 6.0332 2.14648 5.40039 2.14648C4.7793 2.14648 4.25781 2.29883 3.83594 2.60352C3.42578 2.89648 3.11523 3.28906 2.9043 3.78125C2.70508 4.26172 2.60547 4.77734 2.60547 5.32812ZM12.625 21.0957V19.7246C12.625 18.7637 12.8359 17.8848 13.2578 17.0879C13.6797 16.291 14.2832 15.6523 15.0684 15.1719C15.8535 14.6914 16.7852 14.4512 17.8633 14.4512C18.9648 14.4512 19.9023 14.6914 20.6758 15.1719C21.4609 15.6523 22.0645 16.291 22.4863 17.0879C22.9082 17.8848 23.1191 18.7637 23.1191 19.7246V21.0957C23.1191 22.0566 22.9082 22.9355 22.4863 23.7324C22.0762 24.5293 21.4785 25.168 20.6934 25.6484C19.9199 26.1289 18.9883 26.3691 17.8984 26.3691C16.8086 26.3691 15.8711 26.1289 15.0859 25.6484C14.3008 25.168 13.6914 24.5293 13.2578 23.7324C12.8359 22.9355 12.625 22.0566 12.625 21.0957ZM15.0684 19.7246V21.0957C15.0684 21.6348 15.168 22.1504 15.3672 22.6426C15.5781 23.123 15.8945 23.5156 16.3164 23.8203C16.7383 24.1133 17.2656 24.2598 17.8984 24.2598C18.5312 24.2598 19.0527 24.1133 19.4629 23.8203C19.8848 23.5156 20.1953 23.123 20.3945 22.6426C20.5938 22.1621 20.6934 21.6465 20.6934 21.0957V19.7246C20.6934 19.1738 20.5879 18.6582 20.377 18.1777C20.1777 17.6973 19.8672 17.3105 19.4453 17.0176C19.0352 16.7129 18.5078 16.5605 17.8633 16.5605C17.2422 16.5605 16.7207 16.7129 16.2988 17.0176C15.8887 17.3105 15.5781 17.6973 15.3672 18.1777C15.168 18.6582 15.0684 19.1738 15.0684 19.7246ZM18.6719 4.04492L6.17383 24.0488L4.3457 22.8887L16.8438 2.88477L18.6719 4.04492Z" fill="#FF602E"/>
</svg>
