<svg width="26" height="34" viewBox="0 0 26 34" fill="none" xmlns="http://www.w3.org/2000/svg">
<path fill-rule="evenodd" clip-rule="evenodd" d="M13 33.3333C13 33.3333 25.8333 24.447 25.8333 14.0795C25.8333 10.5443 24.4812 7.15391 22.0745 4.65413C19.6678 2.15436 16.4036 0.75 13 0.75C9.59638 0.75 6.33217 2.15436 3.92545 4.65413C1.51874 7.15391 0.166657 10.5443 0.166656 14.0795C0.166656 24.447 13 33.3333 13 33.3333ZM13 18.5227C15.3625 18.5227 17.2778 16.5334 17.2778 14.0795C17.2778 11.6256 15.3625 9.63636 13 9.63636C10.6374 9.63636 8.72221 11.6256 8.72221 14.0795C8.72221 16.5334 10.6374 18.5227 13 18.5227Z" fill="white"/>
</svg>
